<svg xmlns="http://www.w3.org/2000/svg" viewBox="-12.92 25.15 238.92 238.92">
  <defs>
    <linearGradient id="sablia-warm" x1="0%" y1="0%" x2="100%" y2="100%">
      <stop offset="0%" stop-color="#1a2e4e"/>
      <stop offset="100%" stop-color="#c45a2c"/>
    </linearGradient>
  </defs>
  <path fill="url(#sablia-warm)" d="m 12.691951,244.96091 c -1.22309,-0.46344 -2.03873,-1.10617 -2.7021497,-2.12932 -1.40736,-2.17046 -1.20184,-4.36154 0.6749197,-7.19554 0.64585,-0.97526 1.28886,-1.95557 1.4289,-2.17845 1.22823,-1.95473 4.12819,-6.48425 4.92677,-7.69524 0.91966,-1.39462 3.05577,-4.71084 6.89949,-10.7112 0.86077,-1.34372 2.34481,-3.65241 3.29789,-5.13042 0.95308,-1.47801 2.82766,-4.39133 4.16574,-6.47405 1.33808,-2.08271 3.853,-5.98542 5.58871,-8.67267 1.73571,-2.68726 4.45567,-6.91987 6.04437,-9.40579 1.58869,-2.48593 4.55438,-7.10334 6.59042,-10.26091 2.03603,-3.15757 5.06858,-7.87479 6.73898,-10.48271 5.1943,-8.1096 8.95611,-13.94146 11.15599,-17.29491 l 2.11553,-3.22485 -0.89366,-1.51999 c -0.49152,-0.83599 -2.10611,-3.49458 -3.58798,-5.90798 -2.80337,-4.56562 -5.48144,-8.96124 -6.75721,-11.09088 -1.32929,-2.219 -3.55285,-5.85883 -6.67334,-10.92388 -1.68262,-2.73116 -3.8922,-6.362 -4.91019,-8.06854 -3.18463,-5.33867 -3.36529,-5.63467 -9.31874,-15.2685 -1.68783,-2.73122 -3.99886,-6.529628 -5.13563,-8.440908 -1.13677,-1.911281 -3.23202,-5.374386 -4.65611,-7.695788 -1.4241,-2.321402 -3.06498,-5.002756 -3.64642,-5.958564 -0.58143,-0.955808 -1.4021,-2.296488 -1.82371,-2.979289 -1.77035,-2.867107 -3.1811,-5.200747 -9.07453,-15.010899 -1.55031,-2.580619 -1.56067,-2.61007 -1.52339,-4.330205 0.0512,-2.364391 0.96147,-3.906779 2.9397,-4.981289 0.67928,-0.368967 7.586,-0.315712 92.427619,0.712674 62.5168,0.757782 92.0669,1.197357 92.86705,1.381451 2.16431,0.497952 3.81308,2.428831 4.10087,4.802528 0.23302,1.921965 -0.0511,2.487503 -5.29655,10.542716 -1.14678,1.761059 -2.722,4.244645 -3.58183,5.647328 -0.16244,0.265008 -0.81019,1.260331 -1.43942,2.211828 -0.62924,0.951498 -2.7976,4.307585 -4.81857,7.457972 -9.04666,14.102355 -16.12405,25.080975 -19.28377,29.913445 -1.31767,2.01524 -5.13927,7.95179 -8.49246,13.19235 -3.35318,5.24055 -6.89611,10.73731 -7.87317,12.21501 -0.97706,1.4777 -2.4428,3.7312 -3.25721,5.00778 -0.8144,1.27658 -2.54829,3.98394 -3.85309,6.01637 -1.3048,2.03243 -2.37389,3.81486 -2.37577,3.96096 -0.002,0.14609 0.97041,1.86275 2.16065,3.81479 1.19023,1.95203 2.69818,4.44278 3.351,5.53498 0.65283,1.0922 1.83986,3.04723 2.63786,4.34452 0.798,1.29728 2.13488,3.49866 2.97084,4.89195 0.83595,1.39329 1.99857,3.31615 2.58359,4.27303 1.3727,2.24522 12.97946,21.33869 15.59946,25.66155 3.13816,5.17782 4.39762,7.2448 6.61323,10.85337 1.13187,1.84348 2.99337,4.91562 4.13665,6.82699 1.14329,1.91136 2.63193,4.36907 3.30809,5.46157 3.26691,5.27846 4.33745,7.03093 4.85316,7.94464 0.30809,0.54587 1.60306,2.69506 2.87769,4.77598 1.27464,2.08093 2.31653,3.86069 2.31532,3.95502 -10e-4,0.0943 0.19402,0.40287 0.43385,0.68564 0.64805,0.76408 3.47039,5.60195 3.81499,6.5394 0.18638,0.50702 0.24309,1.36061 0.1507,2.26823 -0.18599,1.82697 -1.13572,3.315 -2.6532,4.15702 l -1.08469,0.60188 -92.05522,-1.13073 c -78.604109,-0.9655 -92.193579,-1.18314 -93.002019,-1.48947 z m 173.658199,-8.83236 c -0.20452,-0.32776 -0.92272,-1.52857 -1.59602,-2.66846 -0.67329,-1.1399 -1.77899,-2.96642 -2.45711,-4.05895 -2.02644,-3.26481 -4.76222,-7.75564 -6.18746,-10.15681 -1.24416,-2.09608 -2.77214,-4.64495 -3.14865,-5.25233 -0.19506,-0.31468 -1.04603,-1.70361 -1.89105,-3.08652 -0.84502,-1.38291 -2.44702,-3.9876 -3.56,-5.78819 -3.90744,-6.32151 -4.16067,-6.73998 -10.61835,-17.54773 -0.53024,-0.88741 -1.96536,-3.23359 -3.18917,-5.21372 -1.22381,-1.98014 -2.66255,-4.32636 -3.19719,-5.21383 -0.94428,-1.56743 -2.35362,-3.88588 -12.52419,-20.6031 -2.66481,-4.38012 -5.59309,-9.21668 -6.50728,-10.74792 -0.9142,-1.53123 -2.28112,-3.78961 -3.0376,-5.01862 -1.93381,-3.14172 -2.29855,-3.74504 -3.45181,-5.70974 -1.1483,-1.95627 -3.1679,-5.30865 -5.30906,-8.81263 -0.79269,-1.29721 -1.84018,-3.02876 -2.32777,-3.84789 -0.4876,-0.81912 -1.72761,-2.88568 -2.75559,-4.59235 -1.02798,-1.70667 -3.12449,-5.1934 -4.6589,-7.74829 -1.53441,-2.5549 -2.84762,-4.65011 -2.91825,-4.65602 -0.0706,-0.006 -1.5578,2.27092 -3.30484,5.05964 -1.74705,2.78871 -3.862169,6.11462 -4.700279,7.39089 -0.83811,1.27627 -2.34234,3.60748 -3.34273,5.18047 -5.03656,7.91934 -7.00517,10.92953 -7.15096,10.93451 -0.0882,0.003 -0.47445,-0.52507 -0.85833,-1.17352 -0.38389,-0.64844 -1.72507,-2.88651 -2.98042,-4.97347 l -2.28245,-3.79448 3.91091,-6.16066 c 2.151,-3.38837 4.80853,-7.53471 5.90563,-9.21409 1.09709,-1.67937 2.85909,-4.41422 3.91555,-6.07743 1.05646,-1.66321 2.38632,-3.75219 2.95523,-4.64218 0.56891,-0.88998 1.499809,-2.38809 2.068649,-3.32912 2.19,-3.6229 3.65444,-4.75636 6.10459,-4.7249 1.30167,0.0167 2.98533,0.73313 3.76078,1.60025 0.26958,0.30145 1.36254,2.00027 2.4288,3.77517 1.06626,1.7749 2.44129,4.06488 3.05564,5.08885 0.61435,1.02397 2.61417,4.31958 4.44406,7.32358 1.82989,3.004 3.93874,6.46728 4.68634,7.69618 1.94471,3.1967 5.8627,9.71382 8.9168,14.83209 1.44594,2.42319 2.71552,4.40699 2.82128,4.40845 0.10577,0.001 0.71376,-0.83101 1.35111,-1.84992 1.03294,-1.65136 4.40528,-6.91092 6.56647,-10.24118 0.43596,-0.67179 1.85136,-2.87051 3.14532,-4.88606 1.29397,-2.01554 4.51533,-7.01762 7.15858,-11.11573 6.7931,-10.53208 7.334,-11.37435 10.19806,-15.88 1.40943,-2.21727 4.73305,-7.384312 7.38582,-11.482303 2.65278,-4.097992 5.76627,-8.935192 6.91887,-10.749335 1.1526,-1.814142 2.89133,-4.507518 3.86385,-5.985279 0.97251,-1.477762 2.49614,-3.841365 3.38585,-5.252451 l 1.61764,-2.565612 -40.63524,-0.584127 C 125.9759,53.692412 89.400841,53.22272 67.047371,52.969921 l -40.64267,-0.459634 2.52504,4.108053 c 1.38877,2.259429 3.52746,5.778514 4.75265,7.820188 1.22519,2.041675 2.67339,4.438353 3.21821,5.325952 0.54482,0.887599 2.2438,3.680545 3.77552,6.206545 1.53171,2.526001 4.00644,6.603626 5.4994,9.06139 1.49296,2.457764 3.20493,5.281175 3.80437,6.274235 0.59944,0.99306 2.04722,3.36992 3.21728,5.2819 1.17006,1.91198 3.08463,5.04608 4.25461,6.96467 1.16997,1.91858 2.72439,4.45746 3.45426,5.64196 0.72987,1.18449 2.47439,4.05272 3.87672,6.37384 1.40232,2.32113 2.95712,4.89053 3.45511,5.70979 0.49798,0.81926 2.10351,3.47126 3.56784,5.89334 3.68985,6.10323 9.68014,15.97827 11.40914,18.80807 2.08391,3.41067 3.30873,5.43929 8.39357,13.90184 2.5021,4.16419 5.33884,8.85611 6.30387,10.4265 2.180119,3.54771 4.712839,7.71045 6.569459,10.79746 0.77976,1.2965 1.48299,2.35877 1.56273,2.3606 0.0797,0.002 1.64249,-2.33291 3.47279,-5.1883 1.8303,-2.85539 5.80865,-9.05813 8.84076,-13.78388 3.03212,-4.72575 5.63854,-8.79354 5.79205,-9.03955 0.15351,-0.246 0.33363,-0.39116 0.40027,-0.32256 0.63135,0.64992 6.08299,9.82067 5.98583,10.06936 -0.0705,0.18052 -0.8695,1.46007 -1.77549,2.84346 -0.90599,1.38338 -2.86511,4.43939 -4.35358,6.79113 -1.48848,2.35174 -4.48081,7.02423 -6.64962,10.38331 -2.16881,3.35908 -4.88437,7.56818 -6.03458,9.35356 -1.69502,2.63104 -2.29479,3.36434 -3.16524,3.86994 -2.00581,1.16506 -4.97144,0.69638 -6.50762,-1.02846 -0.5123,-0.5752 -4.640219,-7.23959 -9.124289,-14.73083 -1.22583,-2.0479 -3.90485,-6.46069 -5.9534,-9.80619 -7.20585,-11.76797 -9.49748,-15.53189 -10.40265,-17.08604 l -0.91386,-1.56905 -0.75539,1.25439 c -0.41546,0.68991 -3.47017,5.46342 -6.78824,10.6078 -3.31807,5.14439 -7.04394,10.93701 -8.27971,12.8725 -1.23578,1.9355 -3.49776,5.4428 -5.02662,7.79402 -1.52886,2.35122 -4.10574,6.36398 -5.7264,8.91723 -1.62065,2.55326 -3.91117,6.12631 -5.09004,7.94012 -1.17887,1.8138 -3.18704,4.92141 -4.4626,6.9058 -1.27557,1.98438 -3.33647,5.17243 -4.57979,7.08453 -1.24332,1.91211 -2.77153,4.30134 -3.39602,5.3094 -0.62449,1.00806 -1.68757,2.65709 -2.36238,3.6645 -0.67482,1.00742 -1.2936,2.02479 -1.37507,2.26082 -0.0815,0.23604 -0.22063,0.42824 -0.30925,0.4271 -0.0886,-0.001 -0.37138,0.35547 -0.62835,0.79248 -0.25697,0.437 -1.00122,1.59945 -1.65389,2.58322 -0.65267,0.98378 -1.18728,1.83596 -1.18802,1.89375 -7.4e-4,0.0578 36.60373,0.57514 81.343279,1.14968 l 81.34463,1.04462 z"/>
</svg>
